<svg width="105" height="33" viewBox="0 0 105 33" fill="none" xmlns="http://www.w3.org/2000/svg">
<path fill-rule="evenodd" clip-rule="evenodd" d="M0 6.4C0 2.86538 2.86538 0 6.4 0H27.6C31.1346 0 34 2.86538 34 6.4V26.2097C34 29.7443 31.1346 32.6097 27.6 32.6097H6.4C2.86538 32.6097 0 29.7443 0 26.2097V6.4Z" fill="url(#paint0_linear)"/>
<path fill-rule="evenodd" clip-rule="evenodd" d="M21.7789 16.0753C22.8565 16.3323 23.6701 16.8592 24.2197 17.656C24.7692 18.4528 25.0054 19.3738 24.9284 20.419C24.8108 22.0125 24.1933 23.2419 23.0757 24.1073C21.9581 24.9726 20.414 25.4052 18.4435 25.4052H8.90796L10.2499 7.20801H19.5284C21.379 7.20801 22.8057 7.61067 23.8087 8.41602C24.8117 9.22136 25.2563 10.3951 25.1426 11.9372C25.0642 12.9996 24.7198 13.8949 24.1092 14.6231C23.4986 15.3514 22.7218 15.8354 21.7789 16.0753ZM15.4327 14.3018H17.6431C18.1572 14.3018 18.546 14.199 18.8096 13.9934C19.0732 13.7878 19.2208 13.4708 19.2524 13.0424C19.2853 12.5969 19.1854 12.2671 18.9527 12.0529C18.72 11.8387 18.3467 11.7316 17.8326 11.7316H15.6222L15.4327 14.3018ZM17.5472 20.8302C18.0613 20.8302 18.4498 20.7317 18.7128 20.5346C18.9758 20.3376 19.1237 20.0163 19.1565 19.5708C19.221 18.6969 18.7477 18.26 17.7368 18.26H15.1408L14.9513 20.8302H17.5472Z" fill="white"/>
<path d="M46.8849 21H51.235C53.522 21 54.74 19.8068 54.74 18.1861C54.74 16.6797 53.6612 15.7699 52.5028 15.7152V15.6158C53.5617 15.3771 54.3423 14.6264 54.3423 13.4283C54.3423 11.902 53.2088 10.8182 50.9616 10.8182H46.8849V21ZM49.0376 19.2401V16.5355H50.8423C51.8764 16.5355 52.5177 17.1321 52.5177 17.9723C52.5177 18.7379 51.9957 19.2401 50.7926 19.2401H49.0376ZM49.0376 15.0788V12.5582H50.6732C51.6278 12.5582 52.1697 13.0504 52.1697 13.7862C52.1697 14.5916 51.5134 15.0788 50.6335 15.0788H49.0376Z" fill="black"/>
<path d="M58.2934 10.8182H56.1407V21H58.2934V10.8182Z" fill="black"/>
<path d="M60.0646 21H62.2173V17.3906H63.7883L65.7173 21H68.0937L65.9311 17.0426C67.0894 16.5454 67.7308 15.5362 67.7308 14.1442C67.7308 12.1207 66.3934 10.8182 64.0816 10.8182H60.0646V21ZM62.2173 15.6605V12.5781H63.669C64.9119 12.5781 65.5134 13.13 65.5134 14.1442C65.5134 15.1534 64.9119 15.6605 63.6789 15.6605H62.2173Z" fill="black"/>
<path d="M69.2521 21H71.4048V17.3906H72.9758L74.9048 21H77.2812L75.1186 17.0426C76.2769 16.5454 76.9183 15.5362 76.9183 14.1442C76.9183 12.1207 75.5809 10.8182 73.2691 10.8182H69.2521V21ZM71.4048 15.6605V12.5781H72.8565C74.0994 12.5781 74.7009 13.13 74.7009 14.1442C74.7009 15.1534 74.0994 15.6605 72.8664 15.6605H71.4048Z" fill="black"/>
<path d="M84.7286 10.8182V17.2464C84.7286 18.4098 83.9133 19.25 82.6605 19.25C81.4126 19.25 80.5923 18.4098 80.5923 17.2464V10.8182H78.4396V17.4304C78.4396 19.6577 80.12 21.1442 82.6605 21.1442C85.191 21.1442 86.8813 19.6577 86.8813 17.4304V10.8182H84.7286Z" fill="black"/>
<path d="M89.3721 21.1293C90.0085 21.1293 90.5603 20.5973 90.5653 19.9361C90.5603 19.2848 90.0085 18.7528 89.3721 18.7528C88.7159 18.7528 88.1739 19.2848 88.1789 19.9361C88.1739 20.5973 88.7159 21.1293 89.3721 21.1293Z" fill="black"/>
<path d="M94.4966 10.8182H92.3439V21H94.4966V10.8182Z" fill="black"/>
<path d="M99.8771 21C102.979 21 104.859 19.081 104.859 15.8991C104.859 12.7273 102.979 10.8182 99.9069 10.8182H96.2677V21H99.8771ZM98.4204 19.1555V12.6626H99.7926C101.702 12.6626 102.711 13.6371 102.711 15.8991C102.711 18.1712 101.702 19.1555 99.7876 19.1555H98.4204Z" fill="black"/>
<defs>
<linearGradient id="paint0_linear" x1="3.78303" y1="39.2264" x2="29.301" y2="28.8718" gradientUnits="userSpaceOnUse">
<stop stop-color="#2073D8"/>
<stop offset="1" stop-color="#378DF5"/>
</linearGradient>
</defs>
</svg>
